<svg width="24" height="24" viewBox="0 0 24 24" fill="none" xmlns="http://www.w3.org/2000/svg">
<path d="M21.3969 10.1229H20.625V10.0832H12V13.9165H17.416C16.6258 16.148 14.5026 17.7498 12 17.7498C8.82452 17.7498 6.24996 15.1753 6.24996 11.9998C6.24996 8.8244 8.82452 6.24984 12 6.24984C13.4657 6.24984 14.7993 6.8028 15.8146 7.70602L18.5253 4.99538C16.8137 3.40023 14.5242 2.4165 12 2.4165C6.70756 2.4165 2.41663 6.70744 2.41663 11.9998C2.41663 17.2922 6.70756 21.5832 12 21.5832C17.2924 21.5832 21.5833 17.2922 21.5833 11.9998C21.5833 11.3573 21.5172 10.73 21.3969 10.1229Z" fill="#FFC107"/>
<path d="M3.52161 7.53928L6.67021 9.84838C7.52217 7.73909 9.58546 6.24984 12 6.24984C13.4658 6.24984 14.7993 6.8028 15.8146 7.70602L18.5253 4.99538C16.8137 3.40023 14.5242 2.4165 12 2.4165C8.31902 2.4165 5.12681 4.49465 3.52161 7.53928Z" fill="#FF3D00"/>
<path d="M11.9999 21.5832C14.4753 21.5832 16.7245 20.6359 18.4251 19.0953L15.4591 16.5855C14.4646 17.3418 13.2494 17.7508 11.9999 17.7498C9.50732 17.7498 7.39084 16.1604 6.59351 13.9424L3.46838 16.3502C5.05443 19.4538 8.27538 21.5832 11.9999 21.5832Z" fill="#4CAF50"/>
<path d="M21.3969 10.1233H20.625V10.0835H12V13.9168H17.416C17.0381 14.9789 16.3572 15.9069 15.4577 16.5863L15.4591 16.5853L18.4251 19.0952C18.2153 19.2859 21.5833 16.7918 21.5833 12.0002C21.5833 11.3576 21.5172 10.7304 21.3969 10.1233Z" fill="#1976D2"/>
</svg>
