<svg width="1920" height="1080" viewBox="0 0 1920 1080" fill="none" xmlns="http://www.w3.org/2000/svg">
<g clip-path="url(#clip0_13_2)">
<rect width="1920" height="1080" fill="#171722"/>
<rect x="-0.5" y="-0.5" width="107.667" height="121" stroke="#212121"/>
<rect x="-0.5" y="119.5" width="107.667" height="121" stroke="#212121"/>
<rect x="-0.5" y="239.5" width="107.667" height="121" stroke="#212121"/>
<rect x="-0.5" y="359.5" width="107.667" height="121" stroke="#212121"/>
<rect x="-0.5" y="479.5" width="107.667" height="121" stroke="#212121"/>
<rect x="-0.5" y="599.5" width="107.667" height="121" stroke="#212121"/>
<rect x="-0.5" y="719.5" width="107.667" height="121" fill="#253B74" fill-opacity="0.3" stroke="#212121"/>
<rect x="-0.5" y="1079.5" width="107.667" height="121" fill="#253B74" fill-opacity="0.3" stroke="#212121"/>
<rect x="-0.5" y="839.5" width="107.667" height="121" stroke="#212121"/>
<rect x="-0.5" y="959.5" width="107.667" height="121" stroke="#212121"/>
<rect x="106.164" y="-0.5" width="107.667" height="121" stroke="#212121"/>
<rect x="106.164" y="119.5" width="107.667" height="121" stroke="#212121"/>
<rect x="106.164" y="239.5" width="107.667" height="121" stroke="#212121"/>
<rect x="106.164" y="359.5" width="107.667" height="121" stroke="#212121"/>
<rect x="106.164" y="479.5" width="107.667" height="121" stroke="#212121"/>
<rect x="106.164" y="599.5" width="107.667" height="121" stroke="#212121"/>
<rect x="106.164" y="719.5" width="107.667" height="121" stroke="#212121"/>
<rect x="106.164" y="1079.5" width="107.667" height="121" stroke="#212121"/>
<rect x="106.164" y="839.5" width="107.667" height="121" stroke="#212121"/>
<rect x="106.164" y="959.5" width="107.667" height="121" stroke="#212121"/>
<rect x="212.836" y="-0.5" width="107.667" height="121" stroke="#212121"/>
<rect x="212.836" y="119.5" width="107.667" height="121" stroke="#212121"/>
<rect x="212.836" y="239.5" width="107.667" height="121" stroke="#212121"/>
<rect x="212.836" y="359.5" width="107.667" height="121" fill="#253B74" fill-opacity="0.3" stroke="#212121"/>
<rect x="212.836" y="479.5" width="107.667" height="121" stroke="#212121"/>
<rect x="212.836" y="599.5" width="107.667" height="121" stroke="#212121"/>
<rect x="212.836" y="719.5" width="107.667" height="121" stroke="#212121"/>
<rect x="212.836" y="1079.5" width="107.667" height="121" stroke="#212121"/>
<rect x="212.836" y="839.5" width="107.667" height="121" stroke="#212121"/>
<rect x="212.836" y="959.5" width="107.667" height="121" stroke="#212121"/>
<rect x="319.5" y="-0.5" width="107.667" height="121" stroke="#212121"/>
<rect x="319.5" y="119.5" width="107.667" height="121" stroke="#212121"/>
<rect x="319.5" y="239.5" width="107.667" height="121" stroke="#212121"/>
<rect x="319.5" y="359.5" width="107.667" height="121" stroke="#212121"/>
<rect x="319.5" y="479.5" width="107.667" height="121" stroke="#212121"/>
<rect x="319.5" y="599.5" width="107.667" height="121" stroke="#212121"/>
<rect x="319.5" y="719.5" width="107.667" height="121" stroke="#212121"/>
<rect x="319.5" y="1079.5" width="107.667" height="121" stroke="#212121"/>
<rect x="319.5" y="839.5" width="107.667" height="121" stroke="#212121"/>
<rect x="319.5" y="959.5" width="107.667" height="121" stroke="#212121"/>
<rect x="426.164" y="-0.5" width="107.667" height="121" stroke="#212121"/>
<rect x="426.164" y="119.5" width="107.667" height="121" stroke="#212121"/>
<rect x="426.164" y="239.5" width="107.667" height="121" stroke="#212121"/>
<rect x="426.164" y="359.5" width="107.667" height="121" stroke="#212121"/>
<rect x="426.164" y="479.5" width="107.667" height="121" stroke="#212121"/>
<rect x="426.164" y="599.5" width="107.667" height="121" fill="#253B74" fill-opacity="0.3" stroke="#212121"/>
<rect x="426.164" y="719.5" width="107.667" height="121" stroke="#212121"/>
<rect x="426.164" y="1079.5" width="107.667" height="121" stroke="#212121"/>
<rect x="426.164" y="839.5" width="107.667" height="121" stroke="#212121"/>
<rect x="426.164" y="959.5" width="107.667" height="121" stroke="#212121"/>
<rect x="532.836" y="-0.5" width="107.667" height="121" stroke="#212121"/>
<rect x="532.836" y="119.5" width="107.667" height="121" stroke="#212121"/>
<rect x="532.836" y="239.5" width="107.667" height="121" stroke="#212121"/>
<rect x="532.836" y="359.5" width="107.667" height="121" stroke="#212121"/>
<rect x="532.836" y="479.5" width="107.667" height="121" stroke="#212121"/>
<rect x="532.836" y="599.5" width="107.667" height="121" stroke="#212121"/>
<rect x="532.836" y="719.5" width="107.667" height="121" stroke="#212121"/>
<rect x="532.836" y="1079.5" width="107.667" height="121" stroke="#212121"/>
<rect x="532.836" y="839.5" width="107.667" height="121" stroke="#212121"/>
<rect x="532.836" y="959.5" width="107.667" height="121" stroke="#212121"/>
<rect x="639.5" y="-0.5" width="107.667" height="121" stroke="#212121"/>
<rect x="639.5" y="119.5" width="107.667" height="121" stroke="#212121"/>
<rect x="639.5" y="239.5" width="107.667" height="121" fill="#310978" fill-opacity="0.1" stroke="#212121"/>
<rect x="639.5" y="359.5" width="107.667" height="121" stroke="#212121"/>
<rect x="639.5" y="479.5" width="107.667" height="121" stroke="#212121"/>
<rect x="639.5" y="599.5" width="107.667" height="121" stroke="#212121"/>
<rect x="639.5" y="719.5" width="107.667" height="121" stroke="#212121"/>
<rect x="639.5" y="1079.5" width="107.667" height="121" stroke="#212121"/>
<rect x="639.5" y="839.5" width="107.667" height="121" stroke="#212121"/>
<rect x="639.5" y="959.5" width="107.667" height="121" stroke="#212121"/>
<rect x="746.164" y="-0.5" width="107.667" height="121" stroke="#212121"/>
<rect x="746.164" y="119.5" width="107.667" height="121" stroke="#212121"/>
<rect x="746.164" y="239.5" width="107.667" height="121" fill="#310978" fill-opacity="0.1" stroke="#212121"/>
<rect x="746.164" y="359.5" width="107.667" height="121" stroke="#212121"/>
<rect x="746.164" y="479.5" width="107.667" height="121" stroke="#212121"/>
<rect x="746.164" y="599.5" width="107.667" height="121" stroke="#212121"/>
<rect x="746.164" y="719.5" width="107.667" height="121" stroke="#212121"/>
<rect x="746.164" y="1079.5" width="107.667" height="121" stroke="#212121"/>
<rect x="746.164" y="839.5" width="107.667" height="121" stroke="#212121"/>
<rect x="746.164" y="959.5" width="107.667" height="121" stroke="#212121"/>
<rect x="852.836" y="-0.5" width="107.667" height="121" stroke="#212121"/>
<rect x="852.836" y="119.5" width="107.667" height="121" stroke="#212121"/>
<rect x="852.836" y="239.5" width="107.667" height="121" stroke="#212121"/>
<rect x="852.836" y="359.5" width="107.667" height="121" stroke="#212121"/>
<rect x="852.836" y="479.5" width="107.667" height="121" stroke="#212121"/>
<rect x="852.836" y="599.5" width="107.667" height="121" stroke="#212121"/>
<rect x="852.836" y="719.5" width="107.667" height="121" stroke="#212121"/>
<rect x="852.836" y="1079.5" width="107.667" height="121" stroke="#212121"/>
<rect x="852.836" y="839.5" width="107.667" height="121" stroke="#212121"/>
<rect x="852.836" y="959.5" width="107.667" height="121" stroke="#212121"/>
<rect x="959.5" y="-0.5" width="107.667" height="121" stroke="#212121"/>
<rect x="959.5" y="119.5" width="107.667" height="121" stroke="#212121"/>
<rect x="959.5" y="239.5" width="107.667" height="121" stroke="#212121"/>
<rect x="959.5" y="359.5" width="107.667" height="121" stroke="#212121"/>
<rect x="959.5" y="479.5" width="107.667" height="121" stroke="#212121"/>
<rect x="959.5" y="599.5" width="107.667" height="121" stroke="#212121"/>
<rect x="959.5" y="719.5" width="107.667" height="121" stroke="#212121"/>
<rect x="959.5" y="1079.5" width="107.667" height="121" stroke="#212121"/>
<rect x="959.5" y="839.5" width="107.667" height="121" stroke="#212121"/>
<rect x="959.5" y="959.5" width="107.667" height="121" stroke="#212121"/>
<rect x="1066.16" y="-0.5" width="107.667" height="121" stroke="#212121"/>
<rect x="1066.16" y="119.5" width="107.667" height="121" stroke="#212121"/>
<rect x="1066.16" y="239.5" width="107.667" height="121" stroke="#212121"/>
<rect x="1066.16" y="359.5" width="107.667" height="121" stroke="#212121"/>
<rect x="1066.16" y="479.5" width="107.667" height="121" stroke="#212121"/>
<rect x="1066.16" y="599.5" width="107.667" height="121" stroke="#212121"/>
<rect x="1066.16" y="719.5" width="107.667" height="121" stroke="#212121"/>
<rect x="1066.16" y="1079.5" width="107.667" height="121" stroke="#212121"/>
<rect x="1066.16" y="839.5" width="107.667" height="121" stroke="#212121"/>
<rect x="1066.16" y="959.5" width="107.667" height="121" stroke="#212121"/>
<rect x="1172.84" y="-0.5" width="107.667" height="121" stroke="#212121"/>
<rect x="1172.84" y="119.5" width="107.667" height="121" stroke="#212121"/>
<rect x="1172.84" y="239.5" width="107.667" height="121" stroke="#212121"/>
<rect x="1172.84" y="359.5" width="107.667" height="121" stroke="#212121"/>
<rect x="1172.84" y="479.5" width="107.667" height="121" stroke="#212121"/>
<rect x="1172.84" y="599.5" width="107.667" height="121" stroke="#212121"/>
<rect x="1172.84" y="719.5" width="107.667" height="121" stroke="#212121"/>
<rect x="1172.84" y="1079.5" width="107.667" height="121" stroke="#212121"/>
<rect x="1172.84" y="839.5" width="107.667" height="121" stroke="#212121"/>
<rect x="1172.84" y="959.5" width="107.667" height="121" stroke="#212121"/>
<rect x="1279.5" y="-0.5" width="107.667" height="121" stroke="#212121"/>
<rect x="1279.5" y="119.5" width="107.667" height="121" stroke="#212121"/>
<rect x="1279.5" y="239.5" width="107.667" height="121" stroke="#212121"/>
<rect x="1279.5" y="359.5" width="107.667" height="121" stroke="#212121"/>
<rect x="1279.5" y="479.5" width="107.667" height="121" stroke="#212121"/>
<rect x="1279.5" y="599.5" width="107.667" height="121" stroke="#212121"/>
<rect x="1279.5" y="719.5" width="107.667" height="121" fill="#3F0A9B" fill-opacity="0.1" stroke="#212121"/>
<rect x="1279.5" y="1079.5" width="107.667" height="121" fill="#3F0A9B" fill-opacity="0.1" stroke="#212121"/>
<rect x="1279.5" y="839.5" width="107.667" height="121" stroke="#212121"/>
<rect x="1279.5" y="959.5" width="107.667" height="121" stroke="#212121"/>
<rect x="1386.16" y="-0.5" width="107.667" height="121" stroke="#212121"/>
<rect x="1386.16" y="119.5" width="107.667" height="121" stroke="#212121"/>
<rect x="1386.16" y="239.5" width="107.667" height="121" stroke="#212121"/>
<rect x="1386.16" y="359.5" width="107.667" height="121" stroke="#212121"/>
<rect x="1386.16" y="479.5" width="107.667" height="121" stroke="#212121"/>
<rect x="1386.16" y="599.5" width="107.667" height="121" stroke="#212121"/>
<rect x="1386.16" y="719.5" width="107.667" height="121" stroke="#212121"/>
<rect x="1386.16" y="1079.5" width="107.667" height="121" stroke="#212121"/>
<rect x="1386.16" y="839.5" width="107.667" height="121" stroke="#212121"/>
<rect x="1386.16" y="959.5" width="107.667" height="121" stroke="#212121"/>
<rect x="1492.84" y="-0.5" width="107.667" height="121" stroke="#212121"/>
<rect x="1492.84" y="119.5" width="107.667" height="121" stroke="#212121"/>
<rect x="1492.84" y="239.5" width="107.667" height="121" fill="#253B74" fill-opacity="0.3" stroke="#212121"/>
<rect x="1492.84" y="359.5" width="107.667" height="121" fill="#253B74" fill-opacity="0.3" stroke="#212121"/>
<rect x="1492.84" y="479.5" width="107.667" height="121" stroke="#212121"/>
<rect x="1492.84" y="599.5" width="107.667" height="121" stroke="#212121"/>
<rect x="1492.84" y="719.5" width="107.667" height="121" stroke="#212121"/>
<rect x="1492.84" y="1079.5" width="107.667" height="121" stroke="#212121"/>
<rect x="1492.84" y="839.5" width="107.667" height="121" stroke="#212121"/>
<rect x="1492.84" y="959.5" width="107.667" height="121" stroke="#212121"/>
<rect x="1599.5" y="-0.5" width="107.667" height="121" stroke="#212121"/>
<rect x="1599.5" y="119.5" width="107.667" height="121" stroke="#212121"/>
<rect x="1599.5" y="239.5" width="107.667" height="121" stroke="#212121"/>
<rect x="1599.5" y="359.5" width="107.667" height="121" stroke="#212121"/>
<rect x="1599.5" y="479.5" width="107.667" height="121" stroke="#212121"/>
<rect x="1599.5" y="599.5" width="107.667" height="121" fill="#1F294E" fill-opacity="0.15" stroke="#212121"/>
<rect x="1599.5" y="719.5" width="107.667" height="121" fill="#253B74" fill-opacity="0.3" stroke="#212121"/>
<rect x="1599.5" y="1079.5" width="107.667" height="121" stroke="#212121"/>
<rect x="1599.5" y="839.5" width="107.667" height="121" stroke="#212121"/>
<rect x="1599.5" y="959.5" width="107.667" height="121" stroke="#212121"/>
<rect x="1706.16" y="-0.5" width="107.667" height="121" stroke="#212121"/>
<rect x="1706.16" y="119.5" width="107.667" height="121" stroke="#212121"/>
<rect x="1706.16" y="239.5" width="107.667" height="121" stroke="#212121"/>
<rect x="1706.16" y="359.5" width="107.667" height="121" stroke="#212121"/>
<rect x="1706.16" y="479.5" width="107.667" height="121" stroke="#212121"/>
<rect x="1706.16" y="599.5" width="107.667" height="121" fill="#253B74" fill-opacity="0.3" stroke="#212121"/>
<rect x="1706.16" y="719.5" width="107.667" height="121" stroke="#212121"/>
<rect x="1706.16" y="1079.5" width="107.667" height="121" stroke="#212121"/>
<rect x="1706.16" y="839.5" width="107.667" height="121" stroke="#212121"/>
<rect x="1706.16" y="959.5" width="107.667" height="121" stroke="#212121"/>
<rect x="1812.84" y="-0.5" width="107.667" height="121" stroke="#212121"/>
<rect x="1812.84" y="119.5" width="107.667" height="121" stroke="#212121"/>
<rect x="1812.84" y="239.5" width="107.667" height="121" stroke="#212121"/>
<rect x="1812.84" y="359.5" width="107.667" height="121" stroke="#212121"/>
<rect x="1812.84" y="479.5" width="107.667" height="121" stroke="#212121"/>
<rect x="1812.84" y="599.5" width="107.667" height="121" stroke="#212121"/>
<rect x="1812.84" y="719.5" width="107.667" height="121" stroke="#212121"/>
<rect x="1812.84" y="1079.5" width="107.667" height="121" stroke="#212121"/>
<rect x="1812.84" y="839.5" width="107.667" height="121" stroke="#212121"/>
<rect x="1812.84" y="959.5" width="107.667" height="121" stroke="#212121"/>
<g style="mix-blend-mode:lighten" opacity="0.8" filter="url(#filter0_f_13_2)">
<path d="M1406 27C1406 273.319 1206.32 473 960 473C713.681 473 514 273.319 514 27C514 -219.319 713.681 -419 960 -419C1206.32 -419 1406 -219.319 1406 27ZM692.4 27C692.4 174.791 812.209 294.6 960 294.6C1107.79 294.6 1227.6 174.791 1227.6 27C1227.6 -120.791 1107.79 -240.6 960 -240.6C812.209 -240.6 692.4 -120.791 692.4 27Z" fill="#1E4CC0"/>
</g>
<g style="mix-blend-mode:lighten" opacity="0.6" filter="url(#filter1_f_13_2)">
<ellipse cx="960" cy="1011.5" rx="865" ry="411.5" fill="#1E4CC0"/>
</g>
</g>
<defs>
<filter id="filter0_f_13_2" x="-40" y="-973" width="2000" height="2000" filterUnits="userSpaceOnUse" color-interpolation-filters="sRGB">
<feFlood flood-opacity="0" result="BackgroundImageFix"/>
<feBlend mode="normal" in="SourceGraphic" in2="BackgroundImageFix" result="shape"/>
<feGaussianBlur stdDeviation="277" result="effect1_foregroundBlur_13_2"/>
</filter>
<filter id="filter1_f_13_2" x="-480" y="25" width="2880" height="1973" filterUnits="userSpaceOnUse" color-interpolation-filters="sRGB">
<feFlood flood-opacity="0" result="BackgroundImageFix"/>
<feBlend mode="normal" in="SourceGraphic" in2="BackgroundImageFix" result="shape"/>
<feGaussianBlur stdDeviation="287.5" result="effect1_foregroundBlur_13_2"/>
</filter>
<clipPath id="clip0_13_2">
<rect width="1920" height="1080" fill="white"/>
</clipPath>
</defs>
</svg>
