<svg width="160" height="25" viewBox="0 0 160 25" fill="none" xmlns="http://www.w3.org/2000/svg">
<path d="M12.4846 25C10.7506 25 9.12067 24.6892 7.59478 24.0677C6.09201 23.4231 4.76263 22.5253 3.60665 21.3743C2.47379 20.2233 1.58369 18.8996 0.936343 17.4033C0.312114 15.884 0 14.2495 0 12.5C0 10.7274 0.323674 9.093 0.971022 7.59669C1.61837 6.07735 2.52003 4.75368 3.67601 3.62569C4.83199 2.47468 6.18449 1.5884 7.7335 0.966851C9.28251 0.322284 10.9587 0 12.762 0C14.7734 0 16.623 0.379834 18.3107 1.1395C19.9984 1.87615 21.3972 2.92357 22.5069 4.28177L19.3164 7.45856C18.5535 6.46869 17.6056 5.70902 16.4727 5.17956C15.3398 4.65009 14.0914 4.38536 12.7273 4.38536C11.1783 4.38536 9.8027 4.73066 8.60048 5.42127C7.42138 6.08886 6.4966 7.03269 5.82613 8.25276C5.15567 9.44982 4.82043 10.8541 4.82043 12.4655C4.82043 14.0769 5.14411 15.5041 5.79145 16.7472C6.46192 17.9673 7.36358 18.9227 8.49644 19.6133C9.65242 20.3039 10.9702 20.6492 12.4499 20.6492C13.9758 20.6492 15.282 20.3729 16.3687 19.8204C17.4553 19.2449 18.2876 18.4162 18.8656 17.3343C19.4436 16.2293 19.7326 14.8826 19.7326 13.2942L22.819 15.4006L12.1725 15.297V11.2224H24.5877V11.8785C24.5877 14.779 24.0675 17.2076 23.0271 19.1644C21.9867 21.0981 20.5533 22.5599 18.7269 23.5497C16.9235 24.5166 14.8428 25 12.4846 25Z" fill="white"/>
<path d="M35.7309 25C33.9738 25 32.4132 24.6317 31.0491 23.895C29.6851 23.1354 28.5985 22.0994 27.7893 20.7873C27.0032 19.4751 26.6102 17.9788 26.6102 16.2983C26.6102 14.6409 26.9917 13.1676 27.7546 11.8785C28.5407 10.5663 29.6042 9.53039 30.9451 8.77072C32.286 7.98803 33.7772 7.59669 35.4187 7.59669C37.0371 7.59669 38.459 7.96501 39.6843 8.70166C40.9328 9.41529 41.9038 10.4052 42.5974 11.6713C43.3141 12.9144 43.6724 14.3301 43.6724 15.9185C43.6724 16.2178 43.6493 16.5285 43.6031 16.8508C43.5799 17.1501 43.5221 17.4954 43.4297 17.8867L29.3498 17.9213V14.5373L41.3142 14.5028L39.4762 15.9185C39.43 14.9286 39.245 14.0999 38.9214 13.4323C38.6208 12.7647 38.17 12.2583 37.5689 11.913C36.9909 11.5447 36.2742 11.3605 35.4187 11.3605C34.5171 11.3605 33.731 11.5677 33.0605 11.982C32.3901 12.3734 31.8699 12.9374 31.5 13.674C31.1532 14.3877 30.9798 15.2394 30.9798 16.2293C30.9798 17.2422 31.1647 18.1285 31.5346 18.8881C31.9277 19.6248 32.4825 20.2003 33.1993 20.6146C33.916 21.006 34.7483 21.2017 35.6962 21.2017C36.5516 21.2017 37.3261 21.0635 38.0197 20.7873C38.7133 20.488 39.3144 20.0506 39.823 19.4751L42.4933 22.134C41.6841 23.0778 40.69 23.7914 39.5109 24.2749C38.3549 24.7583 37.0949 25 35.7309 25Z" fill="white"/>
<path d="M48.5378 24.6547V1.03591H53.0808V24.6547H48.5378ZM44.6191 11.9475V7.97652H56.9996V11.9475H44.6191Z" fill="white"/>
<path d="M60.04 24.6547V0.379836H64.7564V24.6547H60.04Z" fill="#2067F2"/>
<path d="M73.2276 14.5028V10.8425H78.8804C80.0363 10.8425 80.9265 10.5548 81.5507 9.97928C82.198 9.38076 82.5217 8.56354 82.5217 7.52763C82.5217 6.5838 82.198 5.80111 81.5507 5.17956C80.9265 4.53499 80.0363 4.21271 78.8804 4.21271H73.2276V0.379836H79.2965C80.8687 0.379836 82.2443 0.690608 83.4234 1.31215C84.6256 1.91068 85.5504 2.73941 86.1977 3.79834C86.8682 4.85727 87.2034 6.07735 87.2034 7.45856C87.2034 8.88582 86.8682 10.1289 86.1977 11.1878C85.5504 12.2238 84.6256 13.041 83.4234 13.6395C82.2212 14.215 80.8224 14.5028 79.2272 14.5028H73.2276ZM69.7597 24.6547V0.379836H74.4761V24.6547H69.7597ZM83.0766 24.6547L75.031 14.1575L79.3659 12.8108L88.7987 24.6547H83.0766Z" fill="#2067F2"/>
<path d="M91.4682 24.6547V0.379836H94.7627L96.1846 5.07597V24.6547H91.4682ZM108.322 24.6547L93.861 6.00829L94.7627 0.379836L109.224 19.0262L108.322 24.6547ZM108.322 24.6547L106.97 20.0967V0.379836H111.721V24.6547H108.322Z" fill="white"/>
<path d="M124.052 25C122.364 25 120.838 24.6202 119.474 23.8605C118.133 23.0778 117.058 22.0304 116.249 20.7182C115.463 19.3831 115.07 17.8983 115.07 16.2638C115.07 14.6294 115.463 13.1676 116.249 11.8785C117.035 10.5663 118.11 9.53039 119.474 8.77072C120.838 7.98803 122.352 7.59669 124.017 7.59669C125.728 7.59669 127.254 7.98803 128.595 8.77072C129.959 9.53039 131.034 10.5663 131.82 11.8785C132.606 13.1676 132.999 14.6294 132.999 16.2638C132.999 17.8983 132.606 19.3831 131.82 20.7182C131.034 22.0304 129.959 23.0778 128.595 23.8605C127.254 24.6202 125.739 25 124.052 25ZM124.017 20.7873C124.872 20.7873 125.624 20.6031 126.271 20.2348C126.942 19.8435 127.45 19.314 127.797 18.6464C128.167 17.9558 128.352 17.1731 128.352 16.2983C128.352 15.4236 128.167 14.6524 127.797 13.9848C127.427 13.3172 126.918 12.7993 126.271 12.4309C125.624 12.0396 124.872 11.8439 124.017 11.8439C123.185 11.8439 122.445 12.0396 121.797 12.4309C121.15 12.7993 120.641 13.3172 120.272 13.9848C119.902 14.6524 119.717 15.4236 119.717 16.2983C119.717 17.1731 119.902 17.9558 120.272 18.6464C120.641 19.314 121.15 19.8435 121.797 20.2348C122.445 20.6031 123.185 20.7873 124.017 20.7873Z" fill="white"/>
<path d="M140.025 24.6547L133.748 7.97652H138.325L142.418 20.0967L141.03 20.1312L145.227 7.97652H148.521L152.717 20.1312L151.33 20.0967L155.422 7.97652H160L153.758 24.6547H150.463L146.232 13.1215H147.515L143.285 24.6547H140.025Z" fill="white"/>
</svg>
