<svg width="20" height="20" viewBox="0 0 20 20" fill="none" xmlns="http://www.w3.org/2000/svg">
<g clip-path="url(#clip0_504_496)">
<path d="M10 17.0603C10.8846 17.852 12.0527 18.3334 13.3333 18.3334C16.0948 18.3334 18.3333 16.0949 18.3333 13.3334C18.3333 11.0276 16.7726 9.0864 14.6499 8.50856M5.35015 8.50855C3.22745 9.08639 1.66667 11.0276 1.66667 13.3334C1.66667 16.0948 3.90524 18.3334 6.66667 18.3334C9.42809 18.3334 11.6667 16.0948 11.6667 13.3334C11.6667 12.683 11.5425 12.0616 11.3165 11.4916M15 6.66675C15 9.42817 12.7614 11.6667 10 11.6667C7.23858 11.6667 5 9.42817 5 6.66675C5 3.90532 7.23858 1.66675 10 1.66675C12.7614 1.66675 15 3.90532 15 6.66675Z" stroke="white" stroke-width="1.5" stroke-linecap="round" stroke-linejoin="round"/>
</g>
<defs>
<clipPath id="clip0_504_496">
<rect width="20" height="20" fill="white"/>
</clipPath>
</defs>
</svg>
