<svg width="20" height="20" viewBox="0 0 20 20" fill="none" xmlns="http://www.w3.org/2000/svg">
<path d="M10 12.5C11.3807 12.5 12.5 11.3807 12.5 9.99996C12.5 8.61925 11.3807 7.49996 10 7.49996C8.61929 7.49996 7.5 8.61925 7.5 9.99996C7.5 11.3807 8.61929 12.5 10 12.5Z" stroke="white" stroke-linecap="round" stroke-linejoin="round"/>
<path d="M15.6061 12.2727C15.5052 12.5012 15.4751 12.7547 15.5197 13.0004C15.5643 13.2462 15.6814 13.4729 15.8561 13.6515L15.9015 13.6969C16.0424 13.8376 16.1541 14.0048 16.2304 14.1887C16.3066 14.3726 16.3459 14.5698 16.3459 14.7689C16.3459 14.968 16.3066 15.1652 16.2304 15.3491C16.1541 15.533 16.0424 15.7002 15.9015 15.8409C15.7608 15.9817 15.5937 16.0935 15.4098 16.1697C15.2258 16.246 15.0287 16.2852 14.8295 16.2852C14.6304 16.2852 14.4333 16.246 14.2493 16.1697C14.0654 16.0935 13.8983 15.9817 13.7576 15.8409L13.7121 15.7954C13.5336 15.6208 13.3068 15.5036 13.0611 15.459C12.8153 15.4145 12.5618 15.4446 12.3333 15.5454C12.1093 15.6414 11.9182 15.8009 11.7836 16.0042C11.649 16.2074 11.5767 16.4456 11.5758 16.6894V16.8181C11.5758 17.22 11.4161 17.6054 11.132 17.8895C10.8478 18.1737 10.4625 18.3333 10.0606 18.3333C9.65876 18.3333 9.27338 18.1737 8.98923 17.8895C8.70509 17.6054 8.54546 17.22 8.54546 16.8181V16.75C8.53959 16.4992 8.45842 16.256 8.31251 16.052C8.16659 15.848 7.96268 15.6926 7.72727 15.606C7.49878 15.5052 7.24531 15.4751 6.99956 15.5197C6.7538 15.5642 6.52703 15.6814 6.34849 15.856L6.30303 15.9015C6.16231 16.0423 5.99521 16.1541 5.81127 16.2304C5.62734 16.3066 5.43018 16.3458 5.23106 16.3458C5.03195 16.3458 4.83479 16.3066 4.65085 16.2304C4.46691 16.1541 4.29981 16.0423 4.15909 15.9015C4.01822 15.7608 3.90646 15.5937 3.83021 15.4097C3.75396 15.2258 3.71472 15.0286 3.71472 14.8295C3.71472 14.6304 3.75396 14.4332 3.83021 14.2493C3.90646 14.0654 4.01822 13.8983 4.15909 13.7575L4.20455 13.7121C4.3792 13.5335 4.49635 13.3068 4.54091 13.061C4.58547 12.8153 4.55539 12.5618 4.45455 12.3333C4.35851 12.1092 4.19906 11.9181 3.99581 11.7835C3.79256 11.6489 3.55439 11.5767 3.31061 11.5757H3.18182C2.77998 11.5757 2.39459 11.4161 2.11045 11.1319C1.8263 10.8478 1.66667 10.4624 1.66667 10.0606C1.66667 9.65872 1.8263 9.27334 2.11045 8.98919C2.39459 8.70505 2.77998 8.54541 3.18182 8.54541H3.25C3.50075 8.53955 3.74394 8.45838 3.94796 8.31247C4.15197 8.16655 4.30736 7.96264 4.39394 7.72723C4.49479 7.49874 4.52487 7.24527 4.48031 6.99951C4.43575 6.75376 4.31859 6.52699 4.14394 6.34844L4.09849 6.30299C3.95761 6.16227 3.84586 5.99517 3.76961 5.81123C3.69336 5.6273 3.65411 5.43013 3.65411 5.23102C3.65411 5.03191 3.69336 4.83474 3.76961 4.65081C3.84586 4.46687 3.95761 4.29977 4.09849 4.15905C4.2392 4.01818 4.40631 3.90642 4.59024 3.83017C4.77418 3.75392 4.97134 3.71468 5.17046 3.71468C5.36957 3.71468 5.56673 3.75392 5.75067 3.83017C5.93461 3.90642 6.10171 4.01818 6.24243 4.15905L6.28788 4.2045C6.46643 4.37915 6.6932 4.49631 6.93895 4.54087C7.1847 4.58543 7.43817 4.55535 7.66667 4.4545H7.72727C7.95134 4.35847 8.14244 4.19902 8.27704 3.99577C8.41164 3.79252 8.48388 3.55434 8.48485 3.31057V3.18178C8.48485 2.77993 8.64448 2.39455 8.92863 2.1104C9.21277 1.82626 9.59816 1.66663 10 1.66663C10.4018 1.66663 10.7872 1.82626 11.0714 2.1104C11.3555 2.39455 11.5152 2.77993 11.5152 3.18178V3.24996C11.5161 3.49374 11.5884 3.73191 11.723 3.93516C11.8576 4.13841 12.0487 4.29787 12.2727 4.3939C12.5012 4.49474 12.7547 4.52483 13.0004 4.48027C13.2462 4.43571 13.473 4.31855 13.6515 4.1439L13.697 4.09844C13.8377 3.95757 14.0048 3.84581 14.1887 3.76957C14.3727 3.69332 14.5698 3.65407 14.7689 3.65407C14.9681 3.65407 15.1652 3.69332 15.3492 3.76957C15.5331 3.84581 15.7002 3.95757 15.8409 4.09844C15.9818 4.23916 16.0935 4.40627 16.1698 4.5902C16.246 4.77414 16.2853 4.9713 16.2853 5.17041C16.2853 5.36953 16.246 5.56669 16.1698 5.75063C16.0935 5.93456 15.9818 6.10167 15.8409 6.24238L15.7955 6.28784C15.6208 6.46638 15.5036 6.69315 15.4591 6.93891C15.4145 7.18466 15.4446 7.43813 15.5455 7.66663V7.72723C15.6415 7.9513 15.8009 8.1424 16.0042 8.277C16.2074 8.4116 16.4456 8.48384 16.6894 8.48481H16.8182C17.22 8.48481 17.6054 8.64444 17.8896 8.92859C18.1737 9.21273 18.3333 9.59812 18.3333 9.99996C18.3333 10.4018 18.1737 10.7872 17.8896 11.0713C17.6054 11.3555 17.22 11.5151 16.8182 11.5151H16.75C16.5062 11.5161 16.2681 11.5883 16.0648 11.7229C15.8616 11.8575 15.7021 12.0486 15.6061 12.2727Z" stroke="white" stroke-linecap="round" stroke-linejoin="round"/>
</svg>
