<svg width="20" height="20" viewBox="0 0 20 20" fill="none" xmlns="http://www.w3.org/2000/svg">
<path d="M15 13.1974C16.2133 13.8069 17.2534 14.785 18.0127 16.008C18.1631 16.2502 18.2382 16.3713 18.2642 16.539C18.3171 16.8798 18.084 17.2988 17.7666 17.4336C17.6104 17.5 17.4347 17.5 17.0833 17.5M13.3333 9.6102C14.5681 8.99657 15.4167 7.72238 15.4167 6.25C15.4167 4.77762 14.5681 3.50343 13.3333 2.8898M11.6667 6.25C11.6667 8.32107 9.98774 10 7.91667 10C5.8456 10 4.16667 8.32107 4.16667 6.25C4.16667 4.17893 5.8456 2.5 7.91667 2.5C9.98774 2.5 11.6667 4.17893 11.6667 6.25ZM2.13269 15.782C3.46128 13.7871 5.55781 12.5 7.91667 12.5C10.2755 12.5 12.3721 13.7871 13.7006 15.782C13.9917 16.219 14.1372 16.4375 14.1205 16.7166C14.1074 16.9339 13.965 17.2 13.7913 17.3313C13.5683 17.5 13.2615 17.5 12.648 17.5H3.1853C2.57181 17.5 2.26507 17.5 2.04203 17.3313C1.86837 17.2 1.72591 16.9339 1.71286 16.7166C1.69611 16.4375 1.84164 16.219 2.13269 15.782Z" stroke="white" stroke-linecap="round" stroke-linejoin="round"/>
</svg>
