<svg width="25" height="24" viewBox="0 0 25 24" fill="none" xmlns="http://www.w3.org/2000/svg">
<path d="M16.0664 18L18.0664 20L22.0664 16M12.0664 15H8.06641C6.20264 15 5.27076 15 4.53567 15.3045C3.55556 15.7105 2.77686 16.4892 2.37089 17.4693C2.06641 18.2044 2.06641 19.1362 2.06641 21M15.5664 3.29076C17.0323 3.88415 18.0664 5.32131 18.0664 7C18.0664 8.67869 17.0323 10.1159 15.5664 10.7092M13.5664 7C13.5664 9.20914 11.7755 11 9.56641 11C7.35727 11 5.56641 9.20914 5.56641 7C5.56641 4.79086 7.35727 3 9.56641 3C11.7755 3 13.5664 4.79086 13.5664 7Z" stroke="black" stroke-width="2" stroke-linecap="round" stroke-linejoin="round"/>
</svg>
